<svg width="24" height="28" viewBox="0 0 24 28" fill="none" xmlns="http://www.w3.org/2000/svg">
<path d="M3.88599 3.94507H21.03V19.9921H3.88599V3.94507Z" fill="white"/>
<path fill-rule="evenodd" clip-rule="evenodd" d="M0 2.005C0 0.898 0.897 0 2.005 0H21.995C23.102 0 24 0.897 24 2.005V21.995C24 22.2583 23.9481 22.519 23.8474 22.7623C23.7466 23.0055 23.5989 23.2266 23.4127 23.4127C23.2266 23.5989 23.0055 23.7466 22.7623 23.8474C22.519 23.9481 22.2583 24 21.995 24H2.005C1.47324 24 0.963261 23.7888 0.587251 23.4127C0.21124 23.0367 0 22.5268 0 21.995L0 2.005ZM9 24L12 28L15 24H9ZM7.008 4H4V20H7.008V15.003C7.008 12.005 8.168 12.01 9 12C10 12.007 11.019 12.06 11.019 14.003V20H14.027V13.109C14.027 10 12 9.003 10 9.003C8.01 9.003 8 9.003 7.008 11.002V4ZM19 19.987C20.105 19.987 21 19.094 21 17.993C20.9989 17.4635 20.7877 16.9562 20.4126 16.5824C20.0376 16.2087 19.5295 15.9992 19 16C17.895 16 17 16.892 17 17.993C17 19.094 17.895 19.987 19 19.987Z" fill="black"/>
</svg>
